OpenSim_Sub02_EMGBaseline_GRF.mot
version=1
nRows=22
nColumns=19
inDegrees=no
endheader
time	lFx	lFy	lFz	lCOPx	lCOPy	lCOPz	rFx	rFy	rFz	rCOPx	rCOPy	rCOPz	lMx	lMy	lMz	rMx	rMy	rMz
33.63000000	-36.40583795	433.12144664	46.43615493	1.00764965	0	-0.63433692	0.31731878	44.25380758	-7.57633546	0.67260967	0	-0.40027245	0	-7.29882961	0	0	0.15446279	0.00000000
33.64000000	-35.01330904	456.57099905	47.08569550	1.00126141	0	-0.63425902	-2.82711713	32.59303984	-6.15912890	0.52988801	0	-0.31171474	0	-6.86292378	0	0	-0.06147411	-0.00000000
33.65000000	-33.40784075	481.13186996	47.96021735	0.99485084	0	-0.63419757	-3.27883387	23.93155564	-4.84255462	0.30447704	0	-0.17588188	0	-6.48128466	0	0	-0.13404445	0.00000000
33.66000000	-31.43409702	504.70165104	48.73880170	0.98816200	0	-0.63411606	-2.35628709	16.71355350	-3.77156949	0.10807902	0	-0.06086858	0	-6.11594595	0	0	-0.09322561	0.00000000
33.67000000	-29.09807774	525.51037507	49.22156245	0.98122862	0	-0.63402523	-1.38473185	10.57302889	-2.98151198	0.00688889	0	-0.00271811	0	-5.76205516	0	0	-0.03985355	-0.00000000
33.68000000	-26.58892265	542.22759934	49.45957953	0.97433237	0	-0.63395530	-0.84165014	5.70582531	-2.24033165	-0.02294556	0	0.01385968	0	-5.43608514	0	0	-0.00756377	0.00000000
33.69000000	-24.09505852	554.39215976	49.62527302	0.96747016	0	-0.63391398	-0.52208104	2.30964942	-1.35311818	-0.02032664	0	0.01189725	0	-5.16436339	0	0	0.00440863	-0.00000000
33.70000000	-21.69535588	562.18954019	49.81158407	0.96051005	0	-0.63391226	-0.23302461	0.46766293	-0.43444916	-0.01034601	0	0.00594227	0	-4.96774754	0	0	0.00555112	0.00000000
33.71000000	-19.42086792	566.03641262	49.97677549	0.95350252	0	-0.63397882	-0.07357500	-0.23396828	0.05595563	-0.00298543	0	0.00165600	0	-4.86656888	0	0	0.00331536	-0.00000000
33.72000000	-17.37378818	566.35230202	50.11910393	0.94662699	0	-0.63405796	-0.00898483	-0.39295613	0.07757503	0.00032016	0	-0.00023123	0	-4.92828774	0	0	0.00121052	-0.00000000
33.73000000	-15.64442983	563.78980183	50.08717916	0.93996010	0	-0.63412020	0.01403084	-0.34975390	0.06637426	0.00104559	0	-0.00062325	0	-5.09653987	0	0	0.00010218	-0.00000000
33.74000000	-14.11719172	559.02203304	49.66075709	0.93350487	0	-0.63418545	0.01404111	-0.24346425	-0.00276007	0.00075903	0	-0.00044179	0	-5.25083522	0	0	-0.00023682	-0.00000000
33.75000000	-12.44072406	552.32076913	48.72480380	0.92713934	0	-0.63425916	-0.00321893	-0.12742544	-0.07788562	0.00033656	0	-0.00019202	0	-5.37158366	0	0	-0.00021798	-0.00000000
33.76000000	-10.27770191	543.61411975	47.20588690	0.92080442	0	-0.63433358	-0.02659803	-0.08674786	-0.07634963	0.00007132	0	-0.00003839	0	-5.43040822	0	0	-0.00011339	0.00000000
33.77000000	-7.68902026	532.86578252	45.27507508	0.91458839	0	-0.63440446	-0.02892123	-0.06370689	-0.05719822	-0.00003122	0	0.00001967	0	-5.45249508	0	0	-0.00003398	0.00000000
33.78000000	-4.94426013	520.67424528	43.22373013	0.90865257	0	-0.63446768	-0.02535773	-0.05486008	0.00496095	-0.00004400	0	0.00002599	0	-5.46994197	0	0	0.00000249	0.00000000
33.79000000	-2.26759918	508.14307514	41.15834514	0.90292662	0	-0.63455263	-0.00056650	-0.09384427	0.08832885	-0.00002726	0	0.00001578	0	-5.45271965	0	0	0.00001097	0.00000000
33.80000000	0.18715420	496.31684135	39.20170712	0.89715652	0	-0.63460083	0.03464412	-0.20763549	0.08184789	-0.00001039	0	0.00000588	0	-5.38908445	0	0	0.00000819	-0.00000000
33.81000000	2.25500683	486.02553893	37.54432917	0.89145870	0	-0.63457559	0.04576458	-0.33938580	0.02538680	-0.00000119	0	0.00000058	0	-5.28688278	0	0	0.00000372	-0.00000000
33.82000000	3.82027103	477.81168932	36.17663816	0.88597333	0	-0.63450511	0.04096158	-0.40380268	-0.02132245	0.00000178	0	-0.00000108	0	-5.16253326	0	0	0.00000084	-0.00000000
33.83000000	5.06510000	472.06344842	35.02683951	0.88081924	0	-0.63444085	0.01998604	-0.39222303	-0.06172582	0.00000175	0	-0.00000103	0	-5.03990074	0	0	-0.00000031	-0.00000000
33.84000000	6.28767725	468.89924570	34.10350711	0.87575443	0	-0.63443967	0.01338339	-0.33895370	-0.08141239	0.00000095	0	-0.00000054	0	-4.91947871	0	0	-0.00000047	-0.00000000
